#define iconify_width  12
#define iconify_height 12
static unsigned char iconify_bits[] = {
 0x00,0xf0,0x00,0xf0,0x00,0xf0,0x00,0xf0,0x00,0xf0,0x00,0xf0,
 0x00,0xf0,0x00,0xf0,0xfe,0xf7,0x00,0xf0,0x00,0xf0,0x00,0xf0};
