#define shade_width  12
#define shade_height 12
static unsigned char shade_bits[] = {
 0x00,0xf0,0x00,0xf0,0x00,0xf0,0x00,0xf0,0x60,0xf0,0x90,0xf0,
 0x08,0xf1,0x04,0xf2,0x02,0xf4,0x00,0xf0,0x00,0xf0,0x00,0xf0};
