#define close_width  12
#define close_height 12
static unsigned char close_bits[] = {
 0x00,0xf0,0x02,0xf4,0x04,0xf2,0x08,0xf1,0x90,0xf0,0x60,0xf0,
 0x60,0xf0,0x90,0xf0,0x08,0xf1,0x04,0xf2,0x02,0xf4,0x00,0xf0};
